<?xml version="1.0" encoding="UTF-8"?>
<svg id="Layer_1" xmlns="http://www.w3.org/2000/svg" version="1.1" viewBox="0 0 1630.09 405.6">
  <!-- Generator: Adobe Illustrator 29.1.0, SVG Export Plug-In . SVG Version: 2.1.0 Build 142)  -->
  <defs>
    <style>
      .st0 {
        fill: #53528b;
      }
    </style>
  </defs>
  <path class="st0" d="M1144.12,34.8c.81,16.24-10.92,55.75-15.66,72.55-.38,1.36-.66,2.57-1.54,3.74l.72.38c6.69,8.63,12.96,14.76,23.86,17.77,1.69.47,3.49.26,5.21.56,2.58.46,5.5,2.84,8.89,1.07,5.87-15.46,11.45-31.03,15.57-47.08-.12-2.11-6.89-6.93-8.31-9.85-.84-1.73.16-1.95.12-2.05h1.65c.45,1.28,6.85,5.83,8.23,7.42,1.73-9.21,5.33-17.87,6.61-27.2,2.59.42,1.34-.78,1.65-2.47.56-3.04,1.24-6.01,1.65-9.07,1.22.57.81,2.21.82,3.3.04,4.16-1.07,9.22-1.89,13.36-4.82,24.29-13.1,48.16-21.82,71.34l-.19,3.51c13.49-.68,25.84-6.36,36.87-13.82,6.04-4.09,10.67-6.95,13.18-14.03,6.57-18.55,9.94-33.77,18.37-52.11l1.65.82c-.24.74-.69,1.26-.82,1.65l-.82,2.47c-1.9,5.52-15.41,43.42-14.01,45.34.55-.19,1.4-.51,1.83-.84,2.11-1.57,10.5-12.15,12.51-14.9,8.97-12.23,15.62-25.74,16.15-41.15,1.37-.29,1.84.62,2.47,1.65-.04.51-.05,1.14,0,1.65l-.82,1.65c-.16.14.13,1.17,0,1.65l-.82,2.47c-3.24,19.54-15.35,39.33-30.46,52.41-1.11.96-3.01.94-3.35,1.76-4.57,11.07-11.11,44.43-12.27,56.8-.48,5.09.17,10.45-.09,15.57.36,2.84,10.4-6.29,11.14-7.03.64-.64,1.99-.71,2.05-.8l.82.82c-2.12,2.67-1.92,4.95-5.83,7.78-13,9.41-12.08-3.49-11.48-13.13,1.1-17.65,7.35-34.92,9.88-52.35-1.31-.26-1.9.14-2.91.79-10.23,6.53-17.57,12.88-30.04,16.13-3.35.87-13.08,1.41-14.87,2.45-1.69.98-8.03,20.4-9.25,23.72-4.34,11.74-13.27,32.1-11.15,44.52,1.38,8.07,5.38,7.08,10.94,3.09.06,9.08-12.56,7.63-14.24-1.44-2.06-11.12,3.35-26.5,7-37.13,2.59-7.56,10.49-23,10.94-29.87l2.47-.83c.38-.99-.73-1.4-.82-1.64-.1-.26.12-.67,0-.82-.27-.35-.19-.64-.82-.82-.15-.04-.7-.06-.82,0-1.03.47-.81.7-.82,1.65-10.32-4.62-20.22-5.54-28.89-13.57-1-.93-5.07-7.55-6.56-6.22-3.69,11.34-5.71,23.14-8.63,34.65-3.15,12.41-12.13,38.85-10.14,50.47.88,5.1,2.42,5.09,5.82,7.2,3.42,2.12-2.97,4.94-6.85-1.22-4.19-6.65-1.2-21.65.39-29.3,6.44-30.96,17.12-63.02,24.8-93.92,4.22-16.99,7.6-34.02,11.09-51.15l1.64-.82c.05.82-.03,1.65,0,2.47ZM1216.26,114.77v.82c.54-.27.54-.55,0-.82Z"/>
  <path class="st0" d="M915.76,99.1c5.9,15.95-5.89,32.13-13.07,45.05-5.08,9.15,4.42,24.24,10.98,30.83,21.3,21.41,48.19,10.32,64.27-10.82,19.94-26.21,31.94-66.2,24.69-98.75-.75-3.37-3.44-8.19-3.63-11.23-.11-1.89,1.35-1.67,2.53-.87.85.58,3.52,9.26,3.89,10.94,3.44,15.47,3.08,32.76-.06,48.18-9.25,45.42-55.02,111.61-100.68,58.33l-7.87-16.43c-2.13,3.72-4.56,8.04-7.09,11.46-12.81,17.37-42.85,56.08-67.69,44.75-31.87-14.54-16.22-65.77-6.99-90.57,5.48-14.73,12.85-28.87,18.31-43.53l-1.26-1.25-7.01,4.94c-.15-1.74-.17-3.02.76-4.59.38-.64,11.43-8.16,12.2-8.43,6.99-2.44.15,7.87-.75,9.99-12.52,29.27-38.85,82.97-27.91,113.95,2.1,5.96,8.18,12.96,13.76,15.91,14.84,7.84,35.73-9.98,45.22-20.47,4.29-4.74,26.52-32.73,27.44-36.88.71-3.22-.85-11.74-.65-16.3.5-11.29,2.73-19.92,7.01-30.09,1.06-2.51-.03-5.74,3.5-7.25.88-.37,2.39-.02,2.67-.18.32.17.62.77.82.82.56,3.4-2.83,4.55-3.99,6.28-1.62,2.43-6.73,21.74-6.73,24.63v14.01c0,.29,1.08,1.22.83,2.06.41.31,1.67-1.25,2-1.7,4.55-6.13,13.1-26.12,13.45-33.55.05-1.09-.43-8.84-.61-9.26h1.65Z"/>
  <path class="st0" d="M1320.54,162.58l.82-1.65c.19-.25-.13-4.05.07-5.28.51-3.09,5.31-11.69,7.35-13.69,1.73.18,2.88.34,2.47-1.65.36-.21.62-.72.82-.82l1.65-.82c.43-.13,1.13.08,1.65,0-.11.49.16,1.32,0,1.65-1.57,3.25-4.58,3.59-6.35,5.2-2.41,2.19-6.84,18.19-6.01,21.46.16.64,1.67.56,1.69,1.02.09,1.87-3.26,5.22-.46,7.78,3.39-3.86,9.54-8.8,11.96-13.19l.82.82c-.13.18-.03,2.75-.93,4.43-1.21,2.24-10.71,10.95-10.5,12.32.68,4.45,10.53,8.61,14.52,9.44,11.18,2.33,28.12-3.88,38.15-9.27,3.98-2.13,29-18.25,29.47-20.72.37-1.98-1.14-7.89-.58-11.4.44-2.79,3.33-6.16,3.86-8.51.72-3.21-.95-5.6,1.89-8,2.84-2.39,8.3-3.59,10.06.6,2.59,6.17-.27,14.53-3.64,19.84-4.06,6.4-11.6,9.17-.98,15.28,2.55,1.47,9.54,4.63,12.34,4.97,12.78,1.52,22.62-5.89,33.27-11.06,7.17-3.48,14.66-6.76,21.46-10.28v1.65c-5.53,5.43-19.11,11.94-26.92,15.54-14.63,6.74-27.47,12.33-42.27,2.13-1.76-1.21-6.99-7.04-7.79-6.9-19.48,15.05-55.46,40.99-80.23,24.84-2.49-1.62-3.78-4.02-6.43-5.14-10.7,7.72-32.34,24.5-43.29,8.69-8.47-12.24,2.85-45.04-2.42-61.88-.93-2.98-3.42-6.42-6.83-6-11.3,1.41-26.05,23.93-32.79,32.84l-1.65-.82c4.92-6.6,9.1-15.27,14.86-21.83,5.99-6.83,18.72-19.1,27.54-10.26,6.63,6.65,2.42,30.14,2.09,39.06-.52,14.15-3.56,35.74,17.39,31.41,3.98-.82,18.7-9.89,21.78-12.84,3.97-3.8.48-5.13.43-9.47-.03-2.78,1.78-6.72,1.64-9.48ZM1420.22,132.98c-2.45-1.65-6.73,4.05-7.54,5.91-.99,2.29-3.39,15.91-2.28,17.09,4.01.09,7.34-5.86,8.65-9.07,1.04-2.56,3.56-12.33,1.17-13.93Z"/>
  <path class="st0" d="M1067.45,122.19c-.09.52.13,1.22,0,1.65-.39,1.25-2.44,3.1-2.45,4.54,0,1.1,3,5.95,3.28,9.06.55,6.16-2.2,13.59-4.79,19.13-1.5,3.2-6.4,12.46-9.23,13.44-.25.09-.6-.1-.82,0v-.82c.84-.24.7-.98.82-1.65,1.61-8.4,11.62-17.56,11.45-29.18-.04-2.56-1.77-10.39-5.29-7.96-1.77,1.21-7.16,6.43-9.06,8.27-7.66,7.4-15.89,17.26-21.52,26.3-4.73,7.59-9.95,17.08-10.25,26.01,5.99,2.61,12.96-1.59,19.01-3.65-.51.78-.06,2.02-1.42,3.34-4.9,4.72-20.88,8.78-21.35-1.4-.7-15.02,24.29-43.99,35.13-54.3,1.25-1.19,8.63-6.66,8.91-7.16.63-1.13-.2-3.48.22-3.92.26-.27,6.37-1.35,7.38-1.69Z"/>
  <path class="st0" d="M1589.3,160.11v.82c-5.57,1.68-14.89,5.74-21.15,5.74-1.78,0-3.8-1.65-6.01-2.08-11.26-2.18-23.28,5.13-34.05,3.55-4.76-.7-12.51-4.3-13.64-9.44-.76-3.47.31-11.63-1.73-14.58-.31-.45-4.29-1.32-5.04-1.32v-2.47c14.51-.25,6.96,10.77,11.19,18.9,5.56,10.67,24.56,3.13,33.75,2.54,10.16-.64,27.21,1.59,36.68-1.66Z"/>
  <path class="st0" d="M1128.46,107.35c5.58.02,11.16,4.74,15.23,8.27,1.65,1.43,7.19,6.71,8.32,8.17.87,1.13,1.51,1.72,1.19,3.34-3.57-.18-4.88-3.95-7.41-6.19-4.21-3.73-12.43-11.88-18.15-9.47l-.72-.38c.88-1.17,1.16-2.37,1.54-3.74Z"/>
  <path class="st0" d="M1335.38,138.67c.26-.04.87-.91,2.03-.91,6.44,0,5.94,13.13,5.02,17.44-.43,2.04-2.76,6.11-3.92,8.05-.24.41-1.43.06-1.49.14l-.82-.82c1.52-2.76,4.3-12.15,4.2-15.26-.09-2.7-1.41-7.52-5.02-7,.16-.33-.11-1.16,0-1.65Z"/>
  <path class="st0" d="M1143.3,26.56c.23-4.63,1.59-8.51,0-13.19-1.03-.91-4.33,3.92-5.76,2.47-1.53-1.55,2.89-6.22,6.89-4.83s1.77,17.29,1.31,20.91c-.2,1.54,1.05,3.35-1.61,2.89-.04-.82.04-1.65,0-2.47l-1.64.82c.17-.82-.05-1.85.82-2.47.26-.19,1.51.2,1.65,0,.33-.46.61-5.33-1.65-4.13Z"/>
  <path class="st0" d="M1507.68,140.32v2.47c-.25,0-4.58.73-4.95.82l-.42-.81-.41.81c-.64.25-4.14,4.03-5.47,4.83-2.35,1.41-6.06,2.32-8.54,3.41l-.42-.81-.41.81c-.2.07-1.58.76-1.65.82v-1.65c6.13-3.17,15.24-10.59,22.26-10.72Z"/>
  <path class="st0" d="M1053.43,170c.22-.1.57.09.82,0-1.77,6.21-7.73,15.34-14.01,17.31l-.82-.82c3.19-4.64,5.77-5.72,8.6-9.12,2.33-2.81,1.63-5.76,5.41-7.36Z"/>
  <path class="st0" d="M1589.3,160.11c1.66-.57,7.82-3.67,10.45-4.8,3.52-1.52,6.28-4.59,10.15-4.26l.04,2.78c-4.07,1.11-7.74,3.61-11.6,5.03-2.94,1.09-6.4,1.28-9.05,2.08v-.82Z"/>
  <path class="st0" d="M1234.8,155.99l1.65.82c-4.41,5.83-8.64,11.59-13.19,17.31l-.82-.82c3.92-5.27,8.39-11.98,12.37-17.31Z"/>
  <path class="st0" d="M1257.06,47.17c-.64-1.03-1.1-1.94-2.47-1.65.09-2.67.37-9.82-.78-11.84-.67-1.19-3-.3-4.16-.53v-.82c2.92-1.28,3.81-3.32,6.4,1.43,2.88,5.28,1.41,8.5,1.02,13.41Z"/>
  <path class="st0" d="M1192.76,40.57c.36-2.71-.52-5.31.45-8.21.61-1.83,5.06-6.72,6.97-4.98,1.37,1.25-3.01,4.24-3.62,5.82-1.31,3.39-.69,7.65-2.98,10.66,0-1.08.4-2.73-.82-3.3Z"/>
  <path class="st0" d="M1069.92,120.54c-.14-4.2-8.57-2.29-6.17-6.61,2.62,1.07,10.09,1.91,11.02,4.65,1.06,3.14-1.65,1.49-2.37,1.96-.76.12-1.82-.18-2.47,0Z"/>
  <g>
    <path class="st0" d="M809.87,122.96c-.64-.57-6.76-2.42-7.47-2.42h-13.6c2.34-7.41,5.9-14.76,7.93-22.26,1.39-5.13,2.82-11.33,4.87-18.12,1.11-3.68,10.29-23.59,1-22.12-7.17,1.13-19.92,22.33-24.03,28.77-7.5,11.72-14.2,24.02-21.34,35.96-24,3.24-48.13,5.9-72.3,7.66,3.71-19.32,9.6-38.42,10.71-58.11-.24-1.7-1.09-2.39-2.74-1.95-3.01.81-14.84,19.55-17.05,23.37-7.25,12.57-12.46,26.41-19.35,39.18-3.89,2.21-21.1,1.01-23.13,4.07-.54.81-.54,1.93-.39,2.88.97,6.39,16.95,4.04,14.48,11.2-2.64,7.65-14.51,25.04-19.55,32.39-9.37,13.66-25.22,36.19-36.92,47.15-.81.76-1.19,1.51-2.51,1.21,2.48-27.72-16.82-27.34-34.2-13.17-6.68,5.44-11.56,13.21-17.29,18.98-2.46,2.47-6.07,4.2-8.68,6.56,3.94-15.41,15.24-46.02-4.38-54.57-12.14-5.29-34.38-.31-46.74,3.87-7.98,2.7-15.96,7.47-23.91,10.3l12.38-16.87c19.95-30.47,33.27-76.81-5.24-98.68-43.42-24.66-98.78,8.21-122.09,46.37-4.99,8.17-10.64,21.78-4.67,30.71.33.5,9.89,5.43,10.78,4.67-.76-5.1-8.06-5.46-9.42-9.91-1.4-4.55.47-8.66-.28-13.04,20.23-40.23,75.32-79.59,121.32-56.91,37.62,18.55,26.54,63.11,8.13,92.02-5.81,9.12-14.75,17.78-20.42,26.57-1.72,2.67-1.53,4.99,2.11,3.79,3.83-1.26,11.25-6.36,15.64-8.29,14.89-6.55,45.68-17.8,60.91-10.65,2.39,1.12,7.49,5.87,8.13,8.36,1.94,7.61-1.06,24.02-3.14,31.91-.71,2.69-6.79,18.39-5.73,19.42,4.67,1.06,3.69-1.2,5.71-2.93,10.6-9.04,19.2-20.36,29.35-28.38,13.26-10.48,29.24-14.81,27.51,8.55-.25,3.32-3.91,7.67,2.08,7.08,5.95-.58,16.76-14.88,20.61-19.84,14.05-18.09,28.65-39,40.2-58.73,2.63-4.51,2.7-10.44,8.93-8.8-.05.86.11,1.48.82,2.03,1.23.96,7.44,3.58,9.48,4.59,1.28.63,3.06.47,3.72.79.58.28,3.4,3.03,3.33,3.64-.17,1.59-1.72,3.54-2.13,5.39-3.71,16.48-8.37,45.9-5.13,62.09,1.15,5.74,2.23,6.03,6.4,8.85.08.05-.38,1.42.54,1.67,4.83,1.3,8.43-2.73,11.43-5.78,17.77-18.11,34.76-45.21,48.22-65.96.17-.27,1.84-.37,2.51-1.4l23.09-38.54c3.3-2.67,19.04-1.8,23.86-2.1-2.32,10.94-6.82,21.56-10.13,32.33-8.17,26.57-14.52,53.18-20.17,80.41-1.19,5.73-2.89,11.06-4.16,16.45-.34,1.45.29,10.57.68,10.95.22.22,2.45-.1,3.25,0,6.28-48.33,20.01-94.93,35.56-140.88,5.68.43,12.96-.91,18.42-.04,1.62.26,4.88,2.99,5.4,2.42.58-.64-.19-3.28-1.18-4.17ZM691.51,76.84c-.57,18.3-6.31,35.84-10.28,53.61-1.41,1.8-17.76,2.38-21.04,2.45,8.95-19.39,17.41-39.66,31.32-56.06ZM650.29,146.92c-2.6-2.3-11.97-4.48-13.61-6.58-.48-.61-.5-.91-.39-1.66,1.55.71,3.79-.83,4.53-.83h12.78l-3.31,9.07ZM672.56,156.81h-2.47c.14-.82.18-1.17-.51-1.71-2.08-1.63-10.13-3.86-13.5-5.71-1.52-.83-2.76-1.84-4.11-2.86.13-.63,5.28-8.83,5.74-9.11,3.6-2.16,16.62-.69,21.45-2.05.87.87-3.87,19.85-4.95,21.44-.67.98-.66,1.19-1.65,0ZM732.85,163.12c-.85,1.34-.69,3.19-.93,3.58-12.91,21.16-32.7,45.25-49.49,64.73-.63.73-.56,2.1-1.03,2.64-1.36,1.56-6.61,3.33-8.83,2.71-8.99-23.11-1.4-49.45,3.26-72.85,4.47-.71,1.76-2.97,2.06-6.33.62-6.96,4.19-15.12,5.55-22.07l70.75-7.56c-6.54,12.07-14.02,23.54-21.33,35.16ZM784.71,120.98c-1.33.88-18.14.82-21.47,1.2-.13.01-1.75,1.52-2.47.82-1.77-1.74,1.54-1.52,1.64-1.64.1-.11-.04-1.57.47-2.38,11.13-17.59,19.59-35.68,34.15-50.39.06-.07.41-1.06.82-1.65.24-.33.45-1.07.82-1.65.86-1.34.86-3.26,3.7-3.31,1.35,0-.38,2.93-.4,3.31-.53,8.19-3.92,19.2-6.6,27.21-.23.69-.68,1.23-.82,1.65-.68,2.01-1.32,2.52-1.55,3.16-2.73,7.9-5.43,15.82-8.31,23.67Z"/>
    <path class="st0" d="M227.38,89.21c-7.13,9.24-13.88,20.71-19.79,30.5-.52.87-.35,4-2.47,4.95.05.23.02.58,0,.82-.08.99-1.19,3.29-1.7,4.31-.46.91-1.55.56-1.59.64-1.24,2.31-2.84,5.69-4.12,8.24-6.31,12.56-12.99,25.56-18.96,37.92-.27.55-.56,1.1-.82,1.65-7.44,15.44-14.64,32.1-21.53,47.98-8.22,18.95-15.92,41.45-24.49,61.4-5.04,11.73-12.32,23.3-19.12,34.06-2.23,1.9-1.76-4.81-1.66-6.21,2.1-30.53,15.13-68.16,19.82-100.13.81-5.49.95-11.81,1.65-17.31.69-5.44,1.93-11.27,2.47-16.49.62-6,1.13-12.13,1.65-18.14.05-.54-.05-1.11,0-1.65.24-2.77.62-5.45.82-8.24.65-8.75,1.49-18.52,1.65-27.21.05-2.69.16-5.57,0-8.24-.12-2.04-.08-5.47-.25-6.87-.75-5.99-7.2-8.6-12.71-6.5-9.2,3.5-22.16,28.08-27.04,37.26-7.66,14.42-14.73,30.23-21.71,45.06-19.66,41.81-42.24,88.95-55.93,132.86-5.66,18.14-8.3,41.36-16.12,58.07-.54,1.16-5.12,5.57-1.83,6.4,3.48.87,6.03-6.54,7.29-8.79,2.78-4.97,1.38-3.31,2.37-8.75,11.03-60.92,44.33-127.45,70.59-183.32,9.89-21.04,21.75-51.46,36.41-69.11,17.99-21.66,15.25,13.02,14.81,23.88-1.58,39.34-8.31,87.43-16.72,125.9-3.67,16.78-11.45,37.73-10.99,54.79.32,11.79,7.2,6.37,11.67.31,12.66-17.16,21.35-45.8,29.91-65.72,13.7-31.86,27.68-61.73,43.01-92.6.27-.55.55-1.1.82-1.65,2.75-5.51,5.45-11,8.24-16.49.56-1.1,1.08-2.19,1.65-3.3,1.89-3.66,3.85-7.12,5.77-10.72,7.46-13.99,15.48-33.19,27.49-44.23.59-.55,4.14-3.35,4.65-2.76-.18,4.2.31,8.49-.08,12.69-2.35,25.21-9.34,55.86-13.93,81.29-5.41,30.01-11.56,59.93-17.68,89.9-3.76,18.38-15.62,58.65-10.39,75.44,3.88,12.47,19.31,3.49,25.6-2.11,3.57-3.17,9.36-9.96,11.54-14.01.28-.52,3.11-5.25.42-4.11-.84.35-9.13,10.94-11.11,12.81-4.12,3.89-13.38,11.33-19.19,10.08-4.07-.88-4.46-6.53-4.74-10.13-.74-9.41,1.05-18.58,2.7-27.77,6.11-33.97,15.38-67.54,22.02-101.23.31-1.59.5-3.27.82-4.95,1.73-8.99,3.34-18.19,4.95-27.21.49-2.76,1.18-5.55,1.65-8.24,1.2-6.94,2.16-14.39,3.3-21.43.12-.77-.12-1.7,0-2.47,1.09-6.86,2.25-13.73,3.3-20.61.99-6.55,2.42-13.24,3.3-19.79.29-2.16.57-4.44.82-6.6.4-3.4,1.2-6.29.82-9.89-1.47-14.26-13.46.77-17.31,5.77Z"/>
    <path class="st0" d="M394.52,264.19c-3.52,1.54-5.08-.83-8.11-2.19-1.28-.57-2.86-.36-4.02-.92-3.02-1.48-3.17-9.19-3.09-12.32.1-3.92,3.09-22.46.05-24.41-.94-.6-2.81-.93-3.93-.77-1.51.22-9.13,6.04-10.78,7.43-12.43,10.49-23.08,24.11-35.93,34.14-5.14,4.01-21.09,16.73-24.46,5.63-3.12-10.27.86-28.33,5.18-38.1,1.58-3.58,6.26-7.01,3.69-10.74-3.05,3.23-3.39,3.64-6.25,7.35-6,7.77-19.14,19.93-27.27,25.49-.87.59-4.58,3.28-5.22,2.61l-1.64-3.29c-.69,8.27-11.52,10.91-17.93,6.78-2.6-1.68-6.26-8.36-6.02-11.27.04-.52,1.67-.42,1.71-.93.08-1.03-1.03-3.32-.87-5.68.25-3.84,4.26-18.86,6.23-21.85.88-1.33,2.76-1.66,3.26-2.51.72-1.24.12-3.2.8-4.17.57-.81,2.35-.49,2.75-.94.39-.45.14-2.33.93-3.6,1.01-1.62,3.25-1.82,4.65-2.8.85-.59.99-2.14,1.31-2.35.2-.13,1.47.55,2.35.29,3.5-1.01,7.45-3.35,10.71-.85,3.61,2.77,2.22,9.58,2.49,13.59,1.07-.03,2.16-3.2,2.27-3.89.54-3.38.34-8.82-2.23-11.4-.86-.86-7.75-3.56-8.76-3.66-1.85-.19-3.01,1.13-4.48,1.65-4.45,1.58-5.29,2.89-9.07,4.95-.48.26-.89.88-1.65.82-.14,1.22-2.47,3.84-3.3,5.17-.48.75-1.6.53-1.64.6-.43.71-5.41,10.66-5.77,11.54-.34.84-1.13,5.62-1.65,7.42-2.09,7.25-4.37,15.75-3.1,23.3.74,4.39,4.99,10.15,9.46,11.15,2.72.61,12.42.2,15.08-.65.41-.13,6.33-3.46,7.42-4.12,1.53-.92,2.96-2.77,4.95-3.3l20.6-18.96c-2.96,9.68-9.33,37.92,4.78,41.02,4.39.96,10.45-2.17,14.12-4.4,14.25-8.66,26.51-24.74,39.47-35.75,1.67-1.42,13.66-12.16,15-10.76-.67,8.57-1.68,19.11-.86,27.65,1.15,11.92,22.89,18.91,25.59,3.67-.86-.95-5.69,3.83-6.81,4.32Z"/>
    <path class="st0" d="M456.57,115.18c.3-1.92-3.16-2.86-3.31-1.64-.71,5.79.4,12.91,0,18.95-1.92,28.56-17.77,67.62-25.99,96.02-4.55,15.73-11.52,36.43-14.68,52.1-.42,2.07-1.49,6.91,1.86,4.75,1.2-.77,7.69-23.72,8.73-27.14,5.84-19.35,11.02-38.94,16.67-58.35,8-27.5,20.19-55.31,16.73-84.68Z"/>
  </g>
  <path class="st0" d="M1239.75,52.94l-1.65-.82c.9-1.97.71-7.54,4.11-9.07.78,3.66-1.39,6.66-2.46,9.89Z"/>
  <path class="st0" d="M915.76,99.1h-1.65c-.03-.06-.92.15-1.32-.31-.61-.71-.8-1.43-1.7-2-.55-.34-1.42-.03-1.93-.17-.2-.05-.51-.66-.82-.82.08-.04-.33-1.41.55-1.66,4.33-1.2,5.61,1.55,6.87,4.95Z"/>
  <path class="st0" d="M1249.64,32.33v.82c1.02,3.79-1.51,3.11-1.65,3.3h-2.47c.26-.51-.18-1.82.74-2.95,1.19-1.44,2.53-.8,3.38-1.17Z"/>
  <path class="st0" d="M1072.4,120.54c-.27.18-1.47,4.36-4.95,3.3.13-.42-.09-1.13,0-1.65.43-.14,1.28-1.32,2.47-1.65.65-.18,1.71.12,2.47,0Z"/>
  <path class="st0" d="M1502.74,143.62c-.27.07-.6-.09-.82,0l.41-.81.42.81Z"/>
  <path class="st0" d="M797.87,66.95l.82.42c.29,1.53-.24,1.31-1.64,1.23.06-.07.41-1.06.82-1.65Z"/>
</svg>